<svg width="30" height="30" viewBox="0 0 30 30" fill="none" xmlns="http://www.w3.org/2000/svg">
<path d="M22.9268 7.0625C20.9512 5.09375 18.3171 4 15.5366 4C9.7561 4 5.07317 8.66667 5.07317 14.4271C5.07317 16.25 5.58537 18.0729 6.46341 19.6042L5 25L10.561 23.5417C12.0976 24.3438 13.7805 24.7813 15.5366 24.7813C21.3171 24.7813 26 20.1146 26 14.3542C25.9268 11.6563 24.9024 9.03125 22.9268 7.0625ZM20.5854 18.1458C20.3659 18.7292 19.3415 19.3125 18.8293 19.3854C18.3902 19.4583 17.8049 19.4583 17.2195 19.3125C16.8537 19.1667 16.3415 19.0208 15.7561 18.7292C13.122 17.6354 11.439 15.0104 11.2927 14.7917C11.1463 14.6458 10.1951 13.4062 10.1951 12.0937C10.1951 10.7812 10.8537 10.1979 11.0732 9.90625C11.2927 9.61458 11.5854 9.61458 11.8049 9.61458C11.9512 9.61458 12.1707 9.61458 12.3171 9.61458C12.4634 9.61458 12.6829 9.54167 12.9024 10.0521C13.122 10.5625 13.6341 11.875 13.7073 11.9479C13.7805 12.0937 13.7805 12.2396 13.7073 12.3854C13.6341 12.5313 13.561 12.6771 13.4146 12.8229C13.2683 12.9687 13.1219 13.1875 13.0488 13.2604C12.9024 13.4062 12.7561 13.5521 12.9024 13.7708C13.0488 14.0625 13.561 14.8646 14.3659 15.5937C15.3902 16.4687 16.1951 16.7604 16.4878 16.9063C16.7805 17.0521 16.9268 16.9792 17.0732 16.8333C17.2195 16.6875 17.7317 16.1042 17.878 15.8125C18.0244 15.5208 18.2439 15.5938 18.4634 15.6667C18.6829 15.7396 20 16.3958 20.2195 16.5417C20.5122 16.6875 20.6585 16.7604 20.7317 16.8333C20.8049 17.0521 20.8049 17.5625 20.5854 18.1458Z" fill="white"/>
</svg>
