<svg width="30" height="30" viewBox="0 0 30 30" fill="none" xmlns="http://www.w3.org/2000/svg">
<path d="M26 10.7118V20.65C26 21.4535 25.6931 22.2266 25.1419 22.8112C24.5906 23.3958 23.8369 23.7476 23.0348 23.7948L22.85 23.8H8.15C7.34653 23.8001 6.57341 23.4931 5.98883 22.9419C5.40424 22.3907 5.05239 21.6369 5.00525 20.8348L5 20.65V10.7118L14.9172 17.3236L15.039 17.3929C15.1826 17.463 15.3402 17.4995 15.5 17.4995C15.6598 17.4995 15.8174 17.463 15.9609 17.3929L16.0827 17.3236L26 10.7118Z" fill="white"/>
<path d="M22.8505 7C23.9845 7 24.9789 7.5985 25.5333 8.49835L15.5005 15.1868L5.46777 8.49835C5.73111 8.07081 6.09283 7.71243 6.52278 7.45306C6.95274 7.1937 7.43847 7.04088 7.93947 7.00735L8.15052 7H22.8505Z" fill="white"/>
</svg>
