<svg width="21" height="21" viewBox="0 0 21 21" fill="none" xmlns="http://www.w3.org/2000/svg">
<g clip-path="url(#clip0_1203_194)">
<path d="M5.99991 2.13929C7.00004 2.86816 7.77879 3.86304 8.44379 4.81504L8.83054 5.37854L9.19541 5.91666C9.37793 6.1833 9.45596 6.50777 9.41465 6.82824C9.37334 7.1487 9.21558 7.44277 8.97141 7.65441L7.26429 8.92229C7.18181 8.98185 7.12376 9.06931 7.10091 9.16845C7.07805 9.26758 7.09196 9.37164 7.14004 9.46129C7.52679 10.1639 8.21454 11.2104 9.00204 11.9979C9.79041 12.7854 10.8859 13.5187 11.6375 13.9492C11.7318 14.0021 11.8427 14.0169 11.9475 13.9905C12.0523 13.9641 12.143 13.8986 12.201 13.8074L13.3123 12.116C13.5166 11.8447 13.818 11.6629 14.1533 11.6087C14.4887 11.5545 14.832 11.6323 15.1113 11.8255L15.6914 12.2272C16.7755 12.9797 17.9402 13.8345 18.8309 14.9747C18.9722 15.1565 19.062 15.3729 19.0911 15.6013C19.1202 15.8297 19.0875 16.0617 18.9963 16.2732C18.2639 17.982 16.4107 19.4372 14.483 19.3663L14.2205 19.3514L14.0167 19.3339L13.7909 19.3077L13.545 19.2744L13.2782 19.2307C13.2314 19.2222 13.1848 19.2135 13.1382 19.2044L12.8442 19.1414C12.7927 19.1301 12.7414 19.1185 12.6902 19.1064L12.3699 19.0242L12.033 18.9279L11.6813 18.8142C10.066 18.2664 8.01591 17.1902 5.91241 15.0867C3.80979 12.984 2.73354 10.9339 2.18579 9.31866L2.07204 8.96691L1.97579 8.63004L1.89354 8.30979L1.82529 8.00704C1.80558 7.91222 1.7872 7.81713 1.77016 7.72179L1.72641 7.45491L1.69141 7.20904L1.66604 6.98329L1.64854 6.77941L1.63454 6.51691C1.56366 4.59541 3.03454 2.72904 4.73554 2.00016C4.94027 1.91176 5.16447 1.8781 5.38613 1.90249C5.60779 1.92688 5.81931 2.00848 5.99991 2.13929ZM13.118 5.28491L13.2195 5.29629C13.8565 5.40864 14.4415 5.71974 14.8907 6.18501C15.3399 6.65028 15.6303 7.24582 15.7203 7.88629C15.7524 8.10782 15.6983 8.33322 15.5693 8.51612C15.4402 8.69901 15.246 8.8255 15.0265 8.86955C14.807 8.9136 14.579 8.87186 14.3894 8.75293C14.1998 8.634 14.0629 8.44691 14.007 8.23016L13.9869 8.12954C13.9517 7.8785 13.8446 7.64303 13.6784 7.45158C13.5123 7.26012 13.2942 7.12088 13.0507 7.05066L12.915 7.02004C12.6953 6.9811 12.4988 6.85968 12.3656 6.68063C12.2325 6.50158 12.1727 6.27842 12.1987 6.05679C12.2246 5.83516 12.3342 5.63181 12.5051 5.48834C12.676 5.34486 12.8953 5.27209 13.118 5.28491ZM13.125 2.62491C14.5174 2.62491 15.8528 3.17804 16.8374 4.1626C17.8219 5.14717 18.375 6.48253 18.375 7.87491C18.3748 8.09793 18.2894 8.31244 18.1363 8.47461C17.9832 8.63678 17.774 8.73437 17.5513 8.74744C17.3287 8.76051 17.1095 8.68807 16.9384 8.54493C16.7674 8.40179 16.6575 8.19875 16.6312 7.97729L16.625 7.87491C16.6254 6.98628 16.2875 6.13083 15.68 5.48225C15.0726 4.83367 14.241 4.44058 13.3543 4.38279L13.125 4.37491C12.893 4.37491 12.6704 4.28273 12.5063 4.11863C12.3422 3.95454 12.25 3.73198 12.25 3.49991C12.25 3.26785 12.3422 3.04529 12.5063 2.8812C12.6704 2.7171 12.893 2.62491 13.125 2.62491Z" fill="#19232B"/>
</g>
<defs>
<clipPath id="clip0_1203_194">
<rect width="21" height="21" fill="white"/>
</clipPath>
</defs>
</svg>
