<svg width="21" height="21" viewBox="0 0 21 21" fill="none" xmlns="http://www.w3.org/2000/svg">
<path d="M10.5 4.35542C12.488 4.35542 12.759 4.35542 13.5723 4.35542C14.2952 4.35542 14.6566 4.53614 14.9277 4.62651C15.2892 4.80723 15.5602 4.89759 15.8313 5.16868C16.1024 5.43976 16.2831 5.71084 16.3735 6.07229C16.4639 6.34337 16.5542 6.70482 16.6446 7.42771C16.6446 8.24097 16.6446 8.42169 16.6446 10.5C16.6446 12.5783 16.6446 12.759 16.6446 13.5723C16.6446 14.2952 16.4639 14.6566 16.3735 14.9277C16.1928 15.2892 16.1024 15.5602 15.8313 15.8313C15.5602 16.1024 15.2892 16.2831 14.9277 16.3735C14.6566 16.4639 14.2952 16.5542 13.5723 16.6446C12.759 16.6446 12.5783 16.6446 10.5 16.6446C8.42169 16.6446 8.24097 16.6446 7.42771 16.6446C6.70482 16.6446 6.34337 16.4639 6.07229 16.3735C5.71084 16.1928 5.43976 16.1024 5.16868 15.8313C4.89759 15.5602 4.71687 15.2892 4.62651 14.9277C4.53614 14.6566 4.44578 14.2952 4.35542 13.5723C4.35542 12.759 4.35542 12.5783 4.35542 10.5C4.35542 8.42169 4.35542 8.24097 4.35542 7.42771C4.35542 6.70482 4.53614 6.34337 4.62651 6.07229C4.80723 5.71084 4.89759 5.43976 5.16868 5.16868C5.43976 4.89759 5.71084 4.71687 6.07229 4.62651C6.34337 4.53614 6.70482 4.44578 7.42771 4.35542C8.24097 4.35542 8.51205 4.35542 10.5 4.35542ZM10.5 3C8.42169 3 8.24097 3 7.42771 3C6.61446 3 6.07229 3.18072 5.62048 3.36145C5.16868 3.54217 4.71687 3.81325 4.26506 4.26506C3.81325 4.71687 3.63253 5.07831 3.36145 5.62048C3.18072 6.07229 3.09036 6.61446 3 7.42771C3 8.24097 3 8.51205 3 10.5C3 12.5783 3 12.759 3 13.5723C3 14.3855 3.18072 14.9277 3.36145 15.3795C3.54217 15.8313 3.81325 16.2831 4.26506 16.7349C4.71687 17.1867 5.07831 17.3675 5.62048 17.6386C6.07229 17.8193 6.61446 17.9096 7.42771 18C8.24097 18 8.51205 18 10.5 18C12.488 18 12.759 18 13.5723 18C14.3855 18 14.9277 17.8193 15.3795 17.6386C15.8313 17.4578 16.2831 17.1867 16.7349 16.7349C17.1867 16.2831 17.3675 15.9217 17.6386 15.3795C17.8193 14.9277 17.9096 14.3855 18 13.5723C18 12.759 18 12.488 18 10.5C18 8.51205 18 8.24097 18 7.42771C18 6.61446 17.8193 6.07229 17.6386 5.62048C17.4578 5.16868 17.1867 4.71687 16.7349 4.26506C16.2831 3.81325 15.9217 3.63253 15.3795 3.36145C14.9277 3.18072 14.3855 3.09036 13.5723 3C12.759 3 12.5783 3 10.5 3Z" fill="#19232B"/>
<path d="M10.5 6.61446C8.33133 6.61446 6.61446 8.33133 6.61446 10.5C6.61446 12.6687 8.33133 14.3855 10.5 14.3855C12.6687 14.3855 14.3855 12.6687 14.3855 10.5C14.3855 8.33133 12.6687 6.61446 10.5 6.61446ZM10.5 13.0301C9.14458 13.0301 7.96988 11.9458 7.96988 10.5C7.96988 9.14458 9.05422 7.96988 10.5 7.96988C11.8554 7.96988 13.0301 9.05422 13.0301 10.5C13.0301 11.8554 11.8554 13.0301 10.5 13.0301Z" fill="#19232B"/>
<path d="M14.4759 7.42771C14.975 7.42771 15.3795 7.02315 15.3795 6.5241C15.3795 6.02504 14.975 5.62048 14.4759 5.62048C13.9769 5.62048 13.5723 6.02504 13.5723 6.5241C13.5723 7.02315 13.9769 7.42771 14.4759 7.42771Z" fill="#19232B"/>
</svg>
