<svg width="365" height="182" viewBox="0 0 365 182" fill="none" xmlns="http://www.w3.org/2000/svg">
<g clip-path="url(#clip0_1783_34)">
<path d="M87.0739 176.549C65.8991 153.866 53.9292 124.114 53.4958 93.0885C53.4958 58.116 58.1866 32.6273 81.9301 5.04016L86.4157 0H27.5918L26.9129 1.33719C9.28464 26.8785 -0.106289 57.2012 0.000907593 88.2339C-0.0952655 121.818 11.4015 154.408 32.5504 180.499L33.4557 181.672H91.6825L87.0739 176.549Z" fill="#D4D0C5" fill-opacity="0.5"/>
<path d="M338.17 1.33719L337.244 0H278.503L282.885 5.12247C306.567 32.6273 311.299 58.2809 311.299 93.1712C310.869 124.165 298.913 153.888 277.762 176.549L273.153 181.672H331.36L332.286 180.499C353.447 154.414 364.945 121.821 364.835 88.2339C364.98 57.2326 355.678 26.9227 338.17 1.33719Z" fill="#D4D0C5" fill-opacity="0.5"/>
</g>
<defs>
<clipPath id="clip0_1783_34">
<rect width="365" height="182" fill="white"/>
</clipPath>
</defs>
</svg>
