<svg width="200" height="50" viewBox="0 0 200 50" fill="none" xmlns="http://www.w3.org/2000/svg">
<g clip-path="url(#clip0_1507_585)">
<path d="M46.3319 49.0985H34.3409V24.3747H33.7205L29.1614 49.0985H16.8603L12.5979 24.3747H11.8291V49.0985H0L1.60509 1.71448H18.7755L23.0513 27.3421H23.6583L27.7857 1.71448H44.7268L46.3319 49.0985Z" fill="#F4F2EF"/>
<path d="M53.2784 6.66492C56.2098 2.85226 61.0026 0.945923 67.6568 0.945923C74.311 0.945923 79.0813 2.82977 81.9677 6.59747C84.8722 10.3652 86.3245 16.4843 86.3245 24.9549C86.3245 33.4255 84.8362 39.693 81.8599 43.7574C78.9105 47.8309 74.1266 49.8676 67.5084 49.8676C60.8902 49.8676 56.1334 47.8578 53.2379 43.8384C50.3424 39.8189 48.8902 33.5739 48.8813 25.1032C48.8722 16.6327 50.3379 10.4866 53.2784 6.66492ZM72.0539 15.4862C71.6554 14.6546 71.0068 13.9683 70.1991 13.5233C69.3914 13.0784 68.4648 12.8969 67.5489 13.0043C65.2829 13.0043 63.8127 13.8272 63.1517 15.4862C62.4908 17.1452 62.1671 20.288 62.1671 24.9279V26.7623C62.1671 31.6855 62.5312 34.9362 63.2731 36.4873C64.0149 38.0385 65.5121 38.8208 67.7781 38.8208C70.0442 38.8208 71.5009 38.0789 72.1619 36.5952C72.8228 35.1115 73.1599 32.0766 73.1599 27.4367V24.9819C73.1599 20.3015 72.8362 17.1317 72.0539 15.4862Z" fill="#F4F2EF"/>
<path d="M93.0685 6.66492C95.9819 2.85226 100.766 0.945923 107.42 0.945923C114.074 0.945923 118.844 2.82977 121.731 6.59747C124.6 10.3562 126.038 16.4753 126.047 24.9549C126.057 33.4345 124.581 39.702 121.623 43.7574C118.674 47.8309 113.89 49.8676 107.272 49.8676C100.653 49.8676 95.919 47.8578 93.0685 43.8384C90.164 39.8189 88.7118 33.5739 88.7118 25.1032C88.7118 16.6327 90.164 10.4866 93.0685 6.66492ZM111.817 15.4862C111.418 14.6546 110.77 13.9683 109.962 13.5233C109.155 13.0784 108.228 12.8969 107.312 13.0043C105.046 13.0043 103.575 13.8272 102.915 15.4862C102.254 17.1452 101.93 20.288 101.93 24.9279V26.7623C101.93 31.6855 102.294 34.9362 103.037 36.4873C103.778 38.0385 105.275 38.8208 107.541 38.8208C109.808 38.8208 111.264 38.0789 111.925 36.5952C112.586 35.1115 112.923 32.0766 112.923 27.4367V24.9819C112.923 20.3015 112.545 17.1317 111.817 15.4862Z" fill="#F4F2EF"/>
<path d="M162.762 1.71448L154.75 49.0985H134.599L126.047 1.71448H140.466L144.593 32.7373H145.942L149.072 1.71448H162.762Z" fill="#F4F2EF"/>
<path d="M199.929 1.71448L188.64 34.4504V49.0985H175.664V34.4504L164.509 1.71448H178.861L182.3 17.1315H182.907L186.185 1.71448H199.929Z" fill="#F4F2EF"/>
</g>
<defs>
<clipPath id="clip0_1507_585">
<rect width="200" height="48.946" fill="white" transform="translate(0 0.946045)"/>
</clipPath>
</defs>
</svg>
