<svg width="230" height="26" viewBox="0 0 230 26" fill="none" xmlns="http://www.w3.org/2000/svg">
<path d="M0 0.319267H2.65261L8.62882 19.7505H8.69256L14.9887 0.319267H15.5957L22.5307 20.0699H22.5947C23.1908 18.1526 23.7182 16.4111 24.1769 14.8448C24.6345 13.2787 25.0605 11.7452 25.4551 10.2429C25.8492 8.74082 26.2324 7.19591 26.6054 5.60892C26.9781 4.02168 27.3885 2.25855 27.836 0.319267H30.5844L22.3072 24.8638H21.6362L14.7967 5.52912H14.7328L8.34101 24.8638H7.70212L0 0.319267Z" fill="#0E0F0F"/>
<path d="M51.4843 2.71618C50.4401 2.46072 49.412 2.2532 48.4004 2.09311C47.388 1.93376 46.3441 1.80578 45.2685 1.70968C44.1921 1.61407 43.0842 1.54473 41.9446 1.50216C40.8046 1.45958 39.5847 1.42771 38.2855 1.4063V12.3999H38.3493C38.9884 10.9939 40.1175 10.2908 41.7371 10.2908C42.2908 10.2908 42.802 10.3658 43.271 10.5144C43.7394 10.6638 44.1817 10.8339 44.5972 11.0258C45.0128 11.2178 45.4171 11.3883 45.8117 11.5372C46.2056 11.6864 46.6051 11.7608 47.0102 11.7608C47.3722 11.7608 47.7294 11.6864 48.0807 11.5372C48.4322 11.3883 48.8208 11.1324 49.247 10.7704L49.5348 11.0898C48.8317 11.9418 48.1712 12.5228 47.5535 12.8313C46.9353 13.1403 46.328 13.2948 45.7319 13.2948C45.2629 13.2948 44.8099 13.2257 44.3734 13.0872C43.9364 12.9488 43.4946 12.7887 43.0472 12.6077C42.5998 12.4267 42.1573 12.2673 41.7208 12.1279C41.2838 11.9897 40.8311 11.9209 40.3627 11.9209C39.7022 11.9209 39.1908 12.1394 38.8288 12.5758C38.4663 13.0128 38.2855 13.5079 38.2855 14.0619V23.7775C39.7127 23.7563 41.0444 23.7084 42.2804 23.6334C43.5158 23.559 44.6877 23.4529 45.7957 23.3135C46.9031 23.1753 47.9739 23.0104 49.0076 22.8184C50.0406 22.6269 51.0795 22.4034 52.1237 22.1474V24.8638H35.7285V0.319271H51.4843V2.71618Z" fill="#0E0F0F"/>
<path d="M58.8681 20.0382C59.7415 21.0608 60.7536 21.9393 61.9042 22.675C63.0547 23.41 64.322 23.7776 65.7073 23.7776C66.4102 23.7776 67.0705 23.671 67.6887 23.4577C68.3064 23.245 68.8441 22.9361 69.3027 22.5315C69.7605 22.1266 70.1226 21.6471 70.3892 21.0926C70.6554 20.5392 70.7887 19.9317 70.7887 19.2709C70.7887 18.2276 70.4795 17.3272 69.8617 16.5708C69.2435 15.8149 68.4716 15.1325 67.5449 14.525C66.6179 13.9185 65.6112 13.338 64.5247 12.7835C63.4384 12.23 62.4314 11.6225 61.5047 10.962C60.578 10.3019 59.8055 9.5555 59.1876 8.72514C58.5696 7.89406 58.2609 6.89267 58.2609 5.72073C58.2609 4.78333 58.4686 3.95784 58.8839 3.24378C59.2995 2.52996 59.8532 1.9339 60.5459 1.45437C61.238 0.97484 62.0212 0.612823 62.8948 0.367341C63.7683 0.122833 64.6526 -2.98976e-05 65.5475 -2.98976e-05C66.8257 -2.98976e-05 68.077 0.154947 69.3027 0.463441C70.5276 0.772908 71.6835 1.28942 72.77 2.01345L70.8845 4.09068C70.096 3.17517 69.2277 2.44481 68.2799 1.90178C67.3318 1.35876 66.261 1.08651 65.0679 1.08651C64.4714 1.08651 63.896 1.16145 63.3423 1.31034C62.788 1.45948 62.2927 1.6889 61.8562 1.9974C61.4193 2.30638 61.0731 2.6954 60.8174 3.16374C60.5617 3.6328 60.434 4.17583 60.434 4.79379C60.434 5.79567 60.7536 6.65862 61.3928 7.38266C62.0319 8.10718 62.8255 8.77307 63.7739 9.38009C64.7215 9.9871 65.755 10.5734 66.8736 11.1376C67.9923 11.7026 69.0253 12.3154 69.9737 12.9755C70.9215 13.636 71.7154 14.3865 72.3545 15.2283C72.9939 16.0704 73.3133 17.0659 73.3133 18.2167C73.3133 19.3672 73.0841 20.3788 72.6265 21.2527C72.1679 22.1266 71.5606 22.856 70.8045 23.4416C70.0481 24.0284 69.1798 24.4642 68.2001 24.7525C67.2198 25.0396 66.1973 25.1836 65.1319 25.1836C63.6191 25.1836 62.1596 24.9491 60.7536 24.4805C59.3474 24.0117 58.0156 23.3511 56.7588 22.4991L58.8681 20.0382Z" fill="#0E0F0F"/>
<path d="M96.1622 2.65293C94.8407 2.16294 93.4347 1.83303 91.9438 1.662C90.4522 1.49194 89.1418 1.40654 88.0127 1.40654V24.8638H85.4559V1.40654C84.3266 1.40654 83.0162 1.49194 81.5251 1.662C80.0335 1.83303 78.6272 2.16294 77.3066 2.65293V0.319513H96.1622V2.65293Z" fill="#0E0F0F"/>
<path d="M125.273 25.3237V13.0197C125.273 12.6577 125.155 12.4122 124.921 12.2847C124.686 12.1568 124.399 12.0928 124.058 12.0928C123.397 12.0928 122.598 12.2582 121.661 12.5881C120.723 12.919 119.754 13.2861 118.753 13.6907C117.751 14.0961 116.777 14.4637 115.829 14.7936C114.881 15.1244 114.087 15.2887 113.448 15.2887C112.894 15.2887 112.468 15.1826 112.17 14.9695C111.871 14.7566 111.637 14.5537 111.466 14.3617H111.403V25.3237H108.846V0.779474H111.403V13.0837C111.403 13.5525 111.679 13.7866 112.233 13.7866C112.787 13.7866 113.506 13.6221 114.391 13.2912C115.274 12.9616 116.212 12.6047 117.203 12.2208C118.194 11.8376 119.185 11.4812 120.175 11.1503C121.166 10.8206 122.034 10.6552 122.78 10.6552C123.333 10.6552 123.813 10.7508 124.218 10.9423C124.622 11.1342 124.953 11.3688 125.209 11.6456H125.273V0.779474H127.829V25.3237H125.273Z" fill="#0E0F0F"/>
<path d="M146.461 24.2702C147.952 24.2702 149.289 23.9721 150.472 23.3749C151.654 22.7788 152.661 21.9852 153.492 20.9947C154.323 20.0033 154.956 18.8533 155.393 17.5429C155.83 16.2325 156.049 14.8745 156.049 13.468C156.049 12.0406 155.835 10.6346 155.409 9.24934C154.983 7.86476 154.355 6.62373 153.524 5.52624C152.693 4.42973 151.675 3.54025 150.472 2.85782C149.268 2.17636 147.888 1.83502 146.333 1.83502C144.841 1.83502 143.505 2.13354 142.322 2.72985C141.14 3.32688 140.133 4.12002 139.302 5.11094C138.471 6.10139 137.837 7.25191 137.401 8.56228C136.964 9.87265 136.746 11.2312 136.746 12.6372C136.746 14.0651 136.958 15.471 137.385 16.8559C137.811 18.2409 138.439 19.4822 139.27 20.5785C140.101 21.6762 141.118 22.5657 142.322 23.2476C143.526 23.9296 144.905 24.2702 146.461 24.2702ZM134.221 13.724C134.221 11.8273 134.556 10.0756 135.227 8.46667C135.898 6.85778 136.82 5.45739 137.992 4.26429C139.163 3.07094 140.559 2.13889 142.179 1.46789C143.797 0.796894 145.545 0.460908 147.42 0.460908C149.124 0.460908 150.664 0.775484 152.038 1.40342C153.412 2.03282 154.583 2.88482 155.553 3.96042C156.523 5.03625 157.268 6.29918 157.79 7.74725C158.312 9.1963 158.573 10.7412 158.573 12.382C158.573 14.2565 158.238 16.0038 157.567 17.623C156.895 19.2418 155.974 20.6483 154.802 21.8416C153.63 23.0347 152.24 23.967 150.632 24.638C149.023 25.309 147.27 25.6445 145.374 25.6445C143.669 25.6445 142.131 25.3297 140.756 24.7013C139.382 24.0731 138.21 23.2211 137.241 22.1448C136.271 21.0697 135.525 19.8067 135.004 18.3575C134.481 16.9094 134.221 15.3645 134.221 13.724Z" fill="#0E0F0F"/>
<path d="M174.616 25.6445C171.378 25.6445 168.96 24.8242 167.362 23.1836C165.764 21.5431 164.965 19.0292 164.965 15.6413V0.748475H167.522V15.609C167.522 18.5073 168.177 20.6271 169.487 21.9696C170.798 23.3116 172.667 23.9826 175.096 23.9826C177.546 23.9826 179.458 23.3116 180.832 21.9696C182.207 20.6271 182.894 18.5708 182.894 15.8014C182.894 13.2444 182.846 10.731 182.75 8.25914C182.654 5.78729 182.521 3.28431 182.35 0.748475H184.588V15.6413C184.588 19.0292 183.735 21.5431 182.031 23.1836C180.326 24.8242 177.855 25.6445 174.616 25.6445Z" fill="#0E0F0F"/>
<path d="M192.929 20.4992C193.802 21.5217 194.814 22.4002 195.965 23.1359C197.115 23.8709 198.383 24.2385 199.768 24.2385C200.471 24.2385 201.131 24.132 201.749 23.9186C202.367 23.706 202.905 23.397 203.363 22.9924C203.821 22.5876 204.183 22.108 204.45 21.5536C204.716 21.0001 204.849 20.3926 204.849 19.7318C204.849 18.6886 204.54 17.7882 203.922 17.0318C203.304 16.2758 202.532 15.5934 201.605 14.9859C200.678 14.3794 199.672 13.7989 198.585 13.2444C197.499 12.6909 196.492 12.0834 195.565 11.4229C194.639 10.7629 193.866 10.0164 193.248 9.18608C192.63 8.355 192.321 7.35361 192.321 6.18167C192.321 5.24427 192.529 4.41878 192.944 3.70472C193.36 2.9909 193.914 2.39483 194.606 1.91531C195.299 1.43578 196.082 1.07376 196.955 0.828279C197.829 0.58377 198.713 0.460908 199.608 0.460908C200.886 0.460908 202.138 0.615884 203.363 0.924378C204.588 1.23385 205.744 1.75035 206.831 2.47439L204.945 4.55162C204.157 3.63611 203.288 2.90575 202.34 2.36272C201.392 1.81969 200.322 1.54745 199.128 1.54745C198.532 1.54745 197.957 1.62238 197.403 1.77128C196.849 1.92042 196.353 2.14984 195.917 2.45833C195.48 2.76731 195.134 3.15634 194.878 3.62467C194.622 4.09374 194.494 4.63677 194.494 5.25473C194.494 6.25661 194.814 7.11956 195.453 7.8436C196.092 8.56812 196.886 9.23401 197.834 9.84102C198.782 10.448 199.816 11.0344 200.934 11.5986C202.053 12.1635 203.086 12.7763 204.034 13.4364C204.982 14.0969 205.776 14.8475 206.415 15.6893C207.054 16.5313 207.374 17.5269 207.374 18.6776C207.374 19.8282 207.145 20.8398 206.687 21.7137C206.228 22.5876 205.621 23.317 204.865 23.9026C204.109 24.4894 203.24 24.9251 202.261 25.2134C201.28 25.5005 200.258 25.6445 199.192 25.6445C197.68 25.6445 196.22 25.41 194.814 24.9414C193.408 24.4726 192.076 23.8121 190.819 22.96L192.929 20.4992Z" fill="#0E0F0F"/>
<path d="M229.361 3.17663C228.316 2.92117 227.288 2.71365 226.277 2.55356C225.264 2.3942 224.22 2.26623 223.144 2.17013C222.068 2.07452 220.96 2.00518 219.821 1.9626C218.681 1.92003 217.461 1.88816 216.161 1.86675V12.8604H216.225C216.864 11.4544 217.993 10.7513 219.613 10.7513C220.167 10.7513 220.678 10.8262 221.147 10.9749C221.615 11.1242 222.058 11.2943 222.473 11.4863C222.889 11.6782 223.293 11.8488 223.688 11.9977C224.082 12.1468 224.481 12.2212 224.886 12.2212C225.248 12.2212 225.605 12.1468 225.957 11.9977C226.308 11.8488 226.697 11.5928 227.123 11.2308L227.411 11.5503C226.708 12.4023 226.047 12.9832 225.429 13.2917C224.811 13.6007 224.204 13.7552 223.608 13.7552C223.139 13.7552 222.686 13.6861 222.249 13.5477C221.812 13.4092 221.371 13.2492 220.923 13.0681C220.476 12.8871 220.033 12.7278 219.597 12.5884C219.16 12.4502 218.707 12.3813 218.239 12.3813C217.578 12.3813 217.067 12.5998 216.705 13.0363C216.342 13.4732 216.161 13.9683 216.161 14.5223V24.2379C217.588 24.2168 218.92 24.1688 220.156 24.0939C221.392 24.0194 222.564 23.9134 223.672 23.774C224.779 23.6355 225.85 23.4708 226.884 23.2789C227.917 23.0874 228.955 22.8638 229.999 22.6079V25.3242H213.604V0.77972H229.361V3.17663Z" fill="#0E0F0F"/>
</svg>
