<svg width="60" height="30" viewBox="0 0 60 30" fill="none" xmlns="http://www.w3.org/2000/svg">
<g clip-path="url(#clip0_1782_17)">
<path d="M14.3135 29.1016C10.8327 25.3626 8.86508 20.4584 8.79383 15.3443C8.79383 9.57956 9.56492 5.37813 13.468 0.830796L14.2053 0H4.53564L4.42403 0.220415C1.52624 4.43053 -0.0174721 9.42877 0.000149193 14.544C-0.0156601 20.0799 1.87423 25.4518 5.35075 29.7526L5.49956 29.946H15.0711L14.3135 29.1016Z" fill="#201D1B"/>
<path d="M55.589 0.220415L55.4368 0H45.7807L46.5011 0.844363C50.394 5.37813 51.1719 9.60674 51.1719 15.3579C51.1011 20.4667 49.1358 25.3661 45.659 29.1016L44.9014 29.946H54.4696L54.6218 29.7526C58.1003 25.4529 59.9904 20.0803 59.9724 14.544C59.9961 9.43394 58.4671 4.43781 55.589 0.220415Z" fill="#201D1B"/>
</g>
<defs>
<clipPath id="clip0_1782_17">
<rect width="60" height="30" fill="white"/>
</clipPath>
</defs>
</svg>
