<svg width="200" height="49" viewBox="0 0 200 49" fill="none" xmlns="http://www.w3.org/2000/svg">
<g clip-path="url(#clip0_1507_682)">
<path d="M46.3319 48.1526H34.3409V23.4287H33.7205L29.1614 48.1526H16.8603L12.5979 23.4287H11.8291V48.1526H0L1.60509 0.768555H18.7755L23.0513 26.3962H23.6583L27.7857 0.768555H44.7268L46.3319 48.1526Z" fill="#201D1B"/>
<path d="M53.2784 5.71887C56.2098 1.90621 61.0026 -0.00012207 67.6568 -0.00012207C74.311 -0.00012207 79.0813 1.88372 81.9677 5.65143C84.8722 9.41913 86.3245 15.5383 86.3245 24.0088C86.3245 32.4795 84.8362 38.7469 81.8599 42.8114C78.9105 46.8848 74.1266 48.9215 67.5084 48.9215C60.8902 48.9215 56.1334 46.9118 53.2379 42.8923C50.3424 38.8729 48.8902 32.6278 48.8813 24.1572C48.8722 15.6867 50.3379 9.54053 53.2784 5.71887ZM72.0539 14.5401C71.6554 13.7086 71.0068 13.0223 70.1991 12.5773C69.3914 12.1323 68.4648 11.9508 67.5489 12.0583C65.2829 12.0583 63.8127 12.8811 63.1517 14.5401C62.4908 16.1992 62.1671 19.342 62.1671 23.9819V25.8162C62.1671 30.7394 62.5312 33.9901 63.2731 35.5413C64.0149 37.0924 65.5121 37.8747 67.7781 37.8747C70.0442 37.8747 71.5009 37.1328 72.1619 35.6491C72.8228 34.1654 73.1599 31.1306 73.1599 26.4907V24.0359C73.1599 19.3555 72.8362 16.1857 72.0539 14.5401Z" fill="#201D1B"/>
<path d="M93.0685 5.71887C95.9819 1.90621 100.766 -0.00012207 107.42 -0.00012207C114.074 -0.00012207 118.844 1.88372 121.731 5.65143C124.6 9.41014 126.038 15.5292 126.047 24.0088C126.057 32.4884 124.581 38.756 121.623 42.8114C118.674 46.8848 113.89 48.9215 107.272 48.9215C100.653 48.9215 95.919 46.9118 93.0685 42.8923C90.164 38.8729 88.7118 32.6278 88.7118 24.1572C88.7118 15.6867 90.164 9.54053 93.0685 5.71887ZM111.817 14.5401C111.418 13.7086 110.77 13.0223 109.962 12.5773C109.155 12.1323 108.228 11.9508 107.312 12.0583C105.046 12.0583 103.575 12.8811 102.915 14.5401C102.254 16.1992 101.93 19.342 101.93 23.9819V25.8162C101.93 30.7394 102.294 33.9901 103.037 35.5413C103.778 37.0924 105.275 37.8747 107.541 37.8747C109.808 37.8747 111.264 37.1328 111.925 35.6491C112.586 34.1654 112.923 31.1306 112.923 26.4907V24.0359C112.923 19.3555 112.545 16.1857 111.817 14.5401Z" fill="#201D1B"/>
<path d="M162.762 0.768555L154.75 48.1526H134.599L126.047 0.768555H140.466L144.593 31.7914H145.942L149.072 0.768555H162.762Z" fill="#201D1B"/>
<path d="M199.929 0.768555L188.64 33.5044V48.1526H175.664V33.5044L164.509 0.768555H178.861L182.3 16.1856H182.907L186.185 0.768555H199.929Z" fill="#201D1B"/>
</g>
<defs>
<clipPath id="clip0_1507_682">
<rect width="200" height="48.946" fill="white"/>
</clipPath>
</defs>
</svg>
