<svg width="309" height="133" viewBox="0 0 309 133" fill="none" xmlns="http://www.w3.org/2000/svg">
<path d="M124.779 130.519H92.4854V63.7513H90.8142L78.5361 130.519H45.4072L33.9283 63.7513H31.8577V130.519H0L4.32277 2.55652H50.5657L62.0806 71.7645H63.7156L74.8312 2.55652H120.456L124.779 130.519Z" fill="#201D1B"/>
<path d="M144.751 15.9232C152.645 5.62698 165.553 0.478882 183.474 0.478882C201.394 0.478882 214.242 5.5663 222.015 15.7411C229.838 25.9159 233.748 42.4409 233.748 65.3162C233.748 88.191 229.741 105.117 221.725 116.093C213.781 127.094 200.898 132.594 183.074 132.594C165.25 132.594 152.44 127.166 144.642 116.312C136.844 105.457 132.932 88.5918 132.908 65.7165C132.884 42.8416 136.832 26.2438 144.751 15.9232ZM195.316 39.7454C194.243 37.4996 192.496 35.6464 190.321 34.4446C188.145 33.243 185.65 32.753 183.183 33.0432C177.081 33.0432 173.121 35.2651 171.341 39.7454C169.561 44.2257 168.689 52.7129 168.689 65.2432V70.1969C168.689 83.4921 169.67 92.2706 171.668 96.46C173.666 100.649 177.698 102.761 183.8 102.761C189.904 102.761 193.826 100.758 195.607 96.751C197.387 92.7444 198.295 84.5485 198.295 72.0182V65.3887C198.295 52.7491 197.423 44.1893 195.316 39.7454Z" fill="#201D1B"/>
<path d="M305.397 128.575C290.54 112.604 282.144 91.6604 281.842 69.8219C281.842 45.2578 285.14 27.248 301.805 7.82101L304.867 4.27808H263.646L263.175 5.22285C250.796 23.2024 244.2 44.5493 244.272 66.3974C244.203 90.0401 252.274 112.983 267.12 131.351L267.768 132.177H308.635L305.397 128.575Z" fill="#201D1B"/>
</svg>
