<svg width="269" height="133" viewBox="0 0 269 133" fill="none" xmlns="http://www.w3.org/2000/svg">
<g clip-path="url(#clip0_1792_28)">
<path d="M167.581 4.31384L146.003 132.312H91.7308L68.7383 4.31384H107.569L118.686 88.0921H122.317L130.748 4.31384H167.581Z" fill="#201D1B"/>
<path d="M268.986 4.31384L238.545 92.7547V132.312H203.6V92.7547L173.592 4.31384H212.242L221.507 45.9481H223.144L231.967 4.31384H268.986Z" fill="#201D1B"/>
<path d="M45.6327 5.67317L44.9849 4.72839H3.76377L6.82591 8.33034C23.4908 27.6983 26.7884 45.7672 26.7884 70.3316C26.4781 92.1505 18.0816 113.073 3.234 129.025L-0.00488281 132.628H40.8628L41.5105 131.801C56.3652 113.438 64.4368 90.4924 64.3585 66.8477C64.4639 45.0213 57.9314 23.6815 45.6327 5.67317Z" fill="#201D1B"/>
</g>
<defs>
<clipPath id="clip0_1792_28">
<rect width="269" height="132" fill="white" transform="translate(-0.00488281 0.313843)"/>
</clipPath>
</defs>
</svg>
